/* XPM */
static char * paulstretch_xpm[] = {
"77 77 198 2",
"  	c None",
". 	c #F7F7F7",
"+ 	c #F8F8F8",
"@ 	c #ECECEC",
"# 	c #F5F5F5",
"$ 	c #C4C4C4",
"% 	c #9D9D9D",
"& 	c #E5E5E5",
"* 	c #787878",
"= 	c #DFDFDF",
"- 	c #CCCCCC",
"; 	c #BEBEBE",
"> 	c #CACACA",
", 	c #EDEDED",
"' 	c #B7B7B7",
") 	c #8E8E8E",
"! 	c #848484",
"~ 	c #9A9A9A",
"{ 	c #E2E2E2",
"] 	c #A2A2A2",
"^ 	c #545454",
"/ 	c #444444",
"( 	c #676767",
"_ 	c #D9D9D9",
": 	c #929292",
"< 	c #5E5E5E",
"[ 	c #515151",
"} 	c #616161",
"| 	c #858585",
"1 	c #8C8C8C",
"2 	c #747474",
"3 	c #F4F4F4",
"4 	c #E0E0E0",
"5 	c #EEEEEE",
"6 	c #F3F3F3",
"7 	c #767676",
"8 	c #BCBCBC",
"9 	c #868686",
"0 	c #757575",
"a 	c #C3C3C3",
"b 	c #DEDEDE",
"c 	c #727272",
"d 	c #E3E3E3",
"e 	c #F2F2F2",
"f 	c #9B9B9B",
"g 	c #565656",
"h 	c #E7E7E7",
"i 	c #898989",
"j 	c #D1D1D1",
"k 	c #E8E8E8",
"l 	c #9C9C9C",
"m 	c #EAEAEA",
"n 	c #C0C0C0",
"o 	c #464646",
"p 	c #FAFAFA",
"q 	c #B1B1B1",
"r 	c #878787",
"s 	c #CDCDCD",
"t 	c #C6C6C6",
"u 	c #F6F6F6",
"v 	c #363636",
"w 	c #F1F1F1",
"x 	c #888888",
"y 	c #313131",
"z 	c #9E9E9E",
"A 	c #D6D6D6",
"B 	c #E9E9E9",
"C 	c #B4B4B4",
"D 	c #8F8F8F",
"E 	c #AEAEAE",
"F 	c #959595",
"G 	c #D2D2D2",
"H 	c #D5D5D5",
"I 	c #2F2F2F",
"J 	c #EFEFEF",
"K 	c #A6A6A6",
"L 	c #B0B0B0",
"M 	c #D7D7D7",
"N 	c #C2C2C2",
"O 	c #DBDBDB",
"P 	c #2D2D2D",
"Q 	c #C9C9C9",
"R 	c #D4D4D4",
"S 	c #777777",
"T 	c #2C2C2C",
"U 	c #979797",
"V 	c #BABABA",
"W 	c #8B8B8B",
"X 	c #F9F9F9",
"Y 	c #797979",
"Z 	c #494949",
"` 	c #B5B5B5",
" .	c #DDDDDD",
"..	c #A5A5A5",
"+.	c #CFCFCF",
"@.	c #373737",
"#.	c #5C5C5C",
"$.	c #535353",
"%.	c #A8A8A8",
"&.	c #D8D8D8",
"*.	c #909090",
"=.	c #E1E1E1",
"-.	c #8D8D8D",
";.	c #505050",
">.	c #BDBDBD",
",.	c #E4E4E4",
"'.	c #BFBFBF",
").	c #FDFDFD",
"!.	c #707070",
"~.	c #F0F0F0",
"{.	c #828282",
"].	c #B9B9B9",
"^.	c #DCDCDC",
"/.	c #C5C5C5",
"(.	c #7C7C7C",
"_.	c #ABABAB",
":.	c #646464",
"<.	c #6F6F6F",
"[.	c #808080",
"}.	c #EBEBEB",
"|.	c #D0D0D0",
"1.	c #7D7D7D",
"2.	c #969696",
"3.	c #4C4C4C",
"4.	c #B2B2B2",
"5.	c #2B2B2B",
"6.	c #B3B3B3",
"7.	c #C7C7C7",
"8.	c #A9A9A9",
"9.	c #7E7E7E",
"0.	c #3E3E3E",
"a.	c #7B7B7B",
"b.	c #C8C8C8",
"c.	c #656565",
"d.	c #A3A3A3",
"e.	c #7F7F7F",
"f.	c #A7A7A7",
"g.	c #989898",
"h.	c #AAAAAA",
"i.	c #949494",
"j.	c #CBCBCB",
"k.	c #595959",
"l.	c #C1C1C1",
"m.	c #939393",
"n.	c #6B6B6B",
"o.	c #525252",
"p.	c #A0A0A0",
"q.	c #919191",
"r.	c #4B4B4B",
"s.	c #5B5B5B",
"t.	c #D3D3D3",
"u.	c #7A7A7A",
"v.	c #DADADA",
"w.	c #E6E6E6",
"x.	c #A4A4A4",
"y.	c #434343",
"z.	c #FFFFFF",
"A.	c #B6B6B6",
"B.	c #A1A1A1",
"C.	c #575757",
"D.	c #FEFEFE",
"E.	c #3C3C3C",
"F.	c #6C6C6C",
"G.	c #ACACAC",
"H.	c #383838",
"I.	c #BBBBBB",
"J.	c #AFAFAF",
"K.	c #666666",
"L.	c #FCFCFC",
"M.	c #B8B8B8",
"N.	c #626262",
"O.	c #717171",
"P.	c #818181",
"Q.	c #1C1C1C",
"R.	c #4E4E4E",
"S.	c #555555",
"T.	c #838383",
"U.	c #282828",
"V.	c #696969",
"W.	c #2A2A2A",
"X.	c #252525",
"Y.	c #333333",
"Z.	c #ADADAD",
"`.	c #606060",
" +	c #6D6D6D",
".+	c #424242",
"++	c #343434",
"@+	c #636363",
"#+	c #353535",
"$+	c #5D5D5D",
"%+	c #3B3B3B",
"&+	c #FBFBFB",
"*+	c #262626",
"=+	c #6A6A6A",
"-+	c #1E1E1E",
";+	c #6E6E6E",
">+	c #4D4D4D",
",+	c #585858",
"                                                                                                                                      . . . . . . . . . . ",
"                                                                                                                                    . . . . . . . . . . . ",
"                                                                                                                                    . . . . . . . . . . . ",
"                                                                                                                                  . . . . . . . . . . . . ",
"                                                                                                                                  . . . . . . . . . . . . ",
"                                                                                                                                  . . . . . . . . . . . . ",
"                                                                                                                                . . . . . . . . . . . . . ",
"                                                                                                                                . . . . . . . . . . . . . ",
"                                                                                                                                . . . . . . . . . . . . . ",
"                                                                                                                              . . . . . . . . . . . . . . ",
"                                                                                                                              . . . . . . . . . . . . . . ",
"                                                                                                                            . . . . . . . . . . . . . . . ",
"                                                                                                                            . . . . . . . . . . . . . . . ",
"                                                                                                                          . . . . . . . . . . . . . . . . ",
"                                                                                                                        . . . . . . . . . . . . . . . . . ",
"                                                                                                                        . . . . . . . . . . . . . . . . . ",
"                                                                                                                      . . . . . . . . + . . . . . . . . . ",
"                                                                                                                      . . . . . . . . @ # . . . . . . . . ",
"                                                                                                                    . . . . . . . . . $ @ . . . . . . . . ",
"                                                                                                                    . . . . . . . . . % & . . . . . . . . ",
"                                                                                                                  . . . . . . . . . . * = . . . . . . . . ",
"                                                                                                                . . . . . . . . . . . * = . . . . . . . . ",
"                                                                                                              . . . . . . . . . . . . * = . . . . . . . . ",
"                                                                                                              . . . . . . . . . . . . * = . . . . . . . . ",
"                                                                                                            . . . . . . . . . . . . . * = . . . . . . . . ",
"                                                                                                          . . . . . . . . . . . . . . * = . . . . . . . . ",
"                                                                                                          . . . . . . . . . . . . . . * = . . . . . . . . ",
"                                                                                                        . . . . . . . . . . . . . . . * = . . . . . . . . ",
"                                                                                                        . . . . . . . . . . . . . . . * = . . . . . . . . ",
"                                                                                                      . . . . . . . . . . . . . . . . * = . . . . . . . . ",
"                                                                                                    . . . . . . . . . . . . . . . . . * = + + + . . . . . ",
"                                                                                                    . . . . . . . . . . . . . . . . . * - $ ; > , . . . . ",
"                                                                                                  . . . . . . . . . . . . . . . . . . * ' ) ! ~ { . . . . ",
"                                                                                                . . . . . . . . . . . . . . . . . . . * ] ^ / ( _ . . . . ",
"                                                                                                . . . . . . . . . . . . . . . . . . . * : < [ } ; . . . . ",
"                                                                                              . . . . . . . . . . . . . . . . . + . . * | ) 1 2 ~ . . . . ",
"                                                                                            . . . . . . . . . . . . . . . . . 3 4 5 6 7 7 8 $ 9 0 . . . . ",
"                                                                                          . . . . . . . . . . . . . . . . . + a ' b , 2 c d e f g . . . . ",
"                                                                                          . . . . . . . . . . . . . . . . + h i : j k c l m e n o . . . . ",
"                                                                                        . . . . . . . . . . . p + + . . . k q 7 r s h c t # u k v . . . . ",
"                                                                                      . . . . . . . . . . . . j k w 3 # # - * ! x s h c j . . w y . . . . ",
"                                                                                    . . . . . . . . . . . . . z A B e # # C D E F G k c H . . 6 I . . . . ",
"                                                                                    . . . . . . . . . . . . . 0 t & J 6 J K L M N { 5 0 O . . u P . . . . ",
"                                                                                . . . . . . . . . . . . . . . * Q R B w H ) N b { J 3 S b . . . T . . . . ",
"                                                                                . . . . . . . . . . . . . . . * C U G B V W $ { J 6 # S b . . . T . . . . ",
"                                                                              . . . . . . . . . . . . . . . X Y * Z `  ...~ +.h w 3 # S b . . . T . . . . ",
"                                                                            . . . . . . . . . . . . . . . . > ( @.#.8 @ % E O @ e # u * = . . . T . . . . ",
"                                                                          . . . . . . . . . . . . . . . . . F $.S %.&.w *.8 =.5 6 # u * = . . . T . . . . ",
"                                                                      . . . . . . . . . . . . . . . . X # u -.;.>.,.J # r '.=.5 6 # u * = . . . T . . . . ",
"                                                                  . . . . . . . . . . . . . . . . p ).=.@ 6 { !.+.k ~.# {.$ ,.J 3 u u * = . . . T . . . . ",
"                                                                . . . . . . . . . . . . . . . . . &.].F q ^., 2 /.,.J # (.'.=.5 ,.J 3 7 b . . . T . . . . ",
"                                                          . . . . . . . . . . . . . . . . . . . u _.:.<.(.Q & !.$ d J # [.].= }.s h ~.0 b . . . T . . . . ",
"                                                      . . . . . . . . . . . . . . . . . . . . . |.1.2.| 2 /.,.3.`  ., # 9 4.,.m ' b , 2 b . . . 5.. . . . ",
"                                              . . . . . . . . . . . . . . . . . . . . . . p + . q 6.^.>.Y 7.,.3.$ d J # *.U M & 8._ }.9.4 . . . 0.. . . . ",
"                                      . . . . . . . . . . . . . . . . . . . . . . . . X ).H B b : 7.B d a.b.,.c.^.@ 6 u d.e.+.> f._ }.K k . . . 1.. . . . ",
"                              . . . . . . . . . . . . . . . . . . . . . . . . . . . . 4 ' :.>.%.g.A # >.} ; =.!.b , 6 u ' 9 h.D i.j k j.5 . . . V . . . . ",
". . . . . . . . . . . . . . . . . . . . . . . . . . . . . . . . . . . . . . . . . . . ; k.(.= l l.d.m.$.n.N d 2 H m e u s f (.o.p.A m e u . . . . . . . . ",
". . . . . . . . . . . . . . . . . . . . . . . . . . . X . . . . . . . . . q.H ~.3 # <.S f &.w r S r.v 1.` b 6 e.s =.5 # ,.E s.2 >.4 5 6 u . . . . . . . . ",
". . . . . . . . . . . . . . . . . . . . . . . . . . . j., . . . . . . . . #.{ t.B 3 * u.G k 3 e.k.e.K v.w.~.u 9.V x.&.~.6 8 ..N { J 3 u u . . . . . . . . ",
". . . . . . . . . . . . . . . . . . . . . . . . . . . y., . . . . . . . z.:.0 r.A.m < B.H m 3 e.%.M 5 h _.v., ! {.C.V }.~.A  .~.u . u u u . . . . . . . . ",
". . . . . . . . . . . . . . . . . . . . . . . . . . . 5.. . . . . D.).. W E.F.G.O 5 o.L ^.@ 3 r q M 5 =.2.G B ..H.k.I.}.e 6 # u u u u u u . . . . . . . . ",
". . . . . . . . . . . . . . . . . . . . . . . . . . . 5.. . . + X i ] . *.o.A ~.3 u T 8._ }.3 d.*.8 k 4.d.M m a ..J.O w 3 u u u u u u u u . . . . . . . . ",
". . . . . . . . . . . . . . . . . . . . . . . . p . . 1.b . _ 9 3.l x d ).o.V m e u v R B w # a 0 1.1.K.h.B w { e X + u u u u u u u u u u . . . . . . . . ",
". . . . . . . . . . . . . . L.).+ . . z.p + . . 4.. . a.b . : M.6 5 _ X . N.b , 6 u O.t.~.3 u ,.l 7 ;.~ t , 6 + . . . . . . . . . . . . . . . . . . . . . ",
". . . z.D.z.z.z.. . . X z.z.E K # . . P./., . . Q.X . 3., . o f.J Q _ w . R.'., # # o.' }.e u . $ +.G d ~.# . . . . . . . . . . . . . . . . . . . . . . . ",
". . . $.J.S.$.f p . . k T.o.g.9.q.X . U.w.3 . . V.,.. W.+ . l.F.R.[ g A . X.>.B # u Y.Z.B w # u ~.# + . . . . . . . . . . . . . . . . . . . . . . . . . . ",
". . . T }  . .`.2.. . [ n }.J C  +b . T . . . . * = . T . . { @ J M.g u . [.b.z H ~.W.8.k w # . . . . . . . . . . . . . . . . . . . . . . . . . . . . . . ",
". . . T b + +  ..+. . ).B { 4 &. +^.. T . . . u !.{ . ++3 . m ,.# > @+# . <.r.++Z.k B.A ~.3 u . . . . . . . . . . . . . . . . . . . . . . . . . . . . . . ",
". . . T 5 + + 5 #+. . ]  +} #.$+0.R . %+R &+# I.*+X . 1.^.. Y ] J.=+n @ . 8 V M.= e z.p + . . . . . . . . . . . . . . . . . . . . . . . . . . . . . . . . ",
". . . T : . . i.=+. . Y.; z.).Z.^ &.. % @+u.(.1.-+. . e.@ . O B.i.h.5 + . L.L.).X . . . . . . . . . . . . . . . . . . . . . . . . . . . . . . . . . . . . ",
". . . T ! ^ ;.;+ .. . l C.>+,+1 4.B . e G 7.- w.> . . =.+ . X &+L.&++ . . . . . . . . . . . . . . . . . . . . . . . . . . . . . . . . . . . . . . . . . . ",
". . . T 6 J 5 e . . . # J 5 J 6 u . . . . . . . . . . . . . . . . . . . . . . . . . . . . . . . . . . . . . . . . . . . . . . . . . . . . . . . . . . . . ",
". . . 5.. . . . . . . . . . . . . . . . . . . . . . . . . . . . . . . . . . . . . . . . . . . . . . . . . . . . . . . . . . . . . . . . . . . . . . . . . ",
". . . c.. . . . . . . . . . . . . . . . . . . . . . . . . . . . . . . . . . . . . . . . . . . . . . . . . . . . . . . . . . . . . . . . . . . . . . . . . ",
". . . z.. . . . . . . . . . . . . . . . . . . . . . . . . . . . . . . . . . . . . . . . . . . . . . . . . . . . . . . . . . . . . . . . . . . . . . . . . ",
". . . . . . . . . . . . . . . . . . . . . . . . . . . . . . . . . . . . . . . . . . . . . . . . . . . . . . . . . . . . . . . . . . . . . . . . . . . . . ",
". . . . . . . . . . . . . . . . . . . . . . . . . . . . . . . . . . . . . . . . . . . . . . . . . . . . . . . . . . . . . . . . . . . . . . . . . . . . . "};
